<svg width="245" height="56" viewBox="0 0 245 56" fill="none" xmlns="http://www.w3.org/2000/svg">
    <rect x="115.5" y="0.5" width="129" height="55" stroke="#FFC942"/>
    <rect x="75" y="9" width="79" height="39" fill="#1C3965"/>
    <path d="M13.4609 36H1.94141V19.1953H13.4609V22.5586H5.30469V25.9219H10.8242V29.2852H5.30469V32.6367H13.4609V36ZM27.2539 36H26.4805L25.2383 34.2773C24.9336 34.5508 24.6094 34.8086 24.2656 35.0508C23.9297 35.2852 23.5742 35.4922 23.1992 35.6719C22.8242 35.8438 22.4375 35.9805 22.0391 36.082C21.6484 36.1836 21.25 36.2344 20.8438 36.2344C19.9609 36.2344 19.1289 36.0703 18.3477 35.7422C17.5742 35.4062 16.8945 34.9453 16.3086 34.3594C15.7305 33.7656 15.2734 33.0664 14.9375 32.2617C14.6016 31.4492 14.4336 30.5664 14.4336 29.6133C14.4336 28.668 14.6016 27.7891 14.9375 26.9766C15.2734 26.1641 15.7305 25.4609 16.3086 24.8672C16.8945 24.2734 17.5742 23.8086 18.3477 23.4727C19.1289 23.1367 19.9609 22.9688 20.8438 22.9688C21.125 22.9688 21.4141 22.9922 21.7109 23.0391C22.0156 23.0859 22.3086 23.1641 22.5898 23.2734C22.8789 23.375 23.1484 23.5117 23.3984 23.6836C23.6484 23.8555 23.8594 24.0664 24.0312 24.3164V18.457H27.2539V36ZM24.0312 29.6133C24.0312 29.1758 23.9453 28.7539 23.7734 28.3477C23.6094 27.9336 23.3828 27.5703 23.0938 27.2578C22.8047 26.9375 22.4648 26.6836 22.0742 26.4961C21.6914 26.3008 21.2812 26.2031 20.8438 26.2031C20.4062 26.2031 19.9922 26.2812 19.6016 26.4375C19.2188 26.5938 18.8828 26.8203 18.5938 27.1172C18.3125 27.4062 18.0898 27.7617 17.9258 28.1836C17.7617 28.6055 17.6797 29.082 17.6797 29.6133C17.6797 30.0742 17.7617 30.5117 17.9258 30.9258C18.0898 31.3398 18.3125 31.7031 18.5938 32.0156C18.8828 32.3281 19.2188 32.5742 19.6016 32.7539C19.9922 32.9336 20.4062 33.0234 20.8438 33.0234C21.2812 33.0234 21.6914 32.9297 22.0742 32.7422C22.4648 32.5469 22.8047 32.293 23.0938 31.9805C23.3828 31.6602 23.6094 31.2969 23.7734 30.8906C23.9453 30.4766 24.0312 30.0508 24.0312 29.6133ZM33.4766 20.0391C33.4766 20.3359 33.418 20.6133 33.3008 20.8711C33.1914 21.1289 33.0391 21.3555 32.8438 21.5508C32.6484 21.7383 32.418 21.8906 32.1523 22.0078C31.8945 22.1172 31.6172 22.1719 31.3203 22.1719C31.0234 22.1719 30.7422 22.1172 30.4766 22.0078C30.2188 21.8906 29.9922 21.7383 29.7969 21.5508C29.6094 21.3555 29.457 21.1289 29.3398 20.8711C29.2305 20.6133 29.1758 20.3359 29.1758 20.0391C29.1758 19.75 29.2305 19.4766 29.3398 19.2188C29.457 18.9531 29.6094 18.7266 29.7969 18.5391C29.9922 18.3438 30.2188 18.1914 30.4766 18.082C30.7422 17.9648 31.0234 17.9062 31.3203 17.9062C31.6172 17.9062 31.8945 17.9648 32.1523 18.082C32.418 18.1914 32.6484 18.3438 32.8438 18.5391C33.0391 18.7266 33.1914 18.9531 33.3008 19.2188C33.418 19.4766 33.4766 19.75 33.4766 20.0391ZM32.9258 36H29.7031V23.4492H32.9258V36ZM41.668 36C40.8945 36 40.168 35.8555 39.4883 35.5664C38.8086 35.2695 38.2109 34.8672 37.6953 34.3594C37.1875 33.8438 36.7852 33.2461 36.4883 32.5664C36.1992 31.8867 36.0547 31.1602 36.0547 30.3867V26.6602H34.4961V23.4727H36.0547V18.457H39.2422V23.4727H44.0938V26.6602H39.2422V30.3867C39.2422 30.7227 39.3047 31.0391 39.4297 31.3359C39.5547 31.625 39.7266 31.8789 39.9453 32.0977C40.1641 32.3164 40.4219 32.4922 40.7188 32.625C41.0156 32.75 41.332 32.8125 41.668 32.8125H44.0938V36H41.668ZM49.6719 20.0391C49.6719 20.3359 49.6133 20.6133 49.4961 20.8711C49.3867 21.1289 49.2344 21.3555 49.0391 21.5508C48.8438 21.7383 48.6133 21.8906 48.3477 22.0078C48.0898 22.1172 47.8125 22.1719 47.5156 22.1719C47.2188 22.1719 46.9375 22.1172 46.6719 22.0078C46.4141 21.8906 46.1875 21.7383 45.9922 21.5508C45.8047 21.3555 45.6523 21.1289 45.5352 20.8711C45.4258 20.6133 45.3711 20.3359 45.3711 20.0391C45.3711 19.75 45.4258 19.4766 45.5352 19.2188C45.6523 18.9531 45.8047 18.7266 45.9922 18.5391C46.1875 18.3438 46.4141 18.1914 46.6719 18.082C46.9375 17.9648 47.2188 17.9062 47.5156 17.9062C47.8125 17.9062 48.0898 17.9648 48.3477 18.082C48.6133 18.1914 48.8438 18.3438 49.0391 18.5391C49.2344 18.7266 49.3867 18.9531 49.4961 19.2188C49.6133 19.4766 49.6719 19.75 49.6719 20.0391ZM49.1211 36H45.8984V23.4492H49.1211V36ZM63.6992 29.6133C63.6992 30.5508 63.5312 31.4258 63.1953 32.2383C62.8594 33.043 62.4023 33.7422 61.8242 34.3359C61.2461 34.9219 60.5664 35.3867 59.7852 35.7305C59.0117 36.0664 58.1797 36.2344 57.2891 36.2344C56.4062 36.2344 55.5742 36.0664 54.793 35.7305C54.0195 35.3867 53.3398 34.9219 52.7539 34.3359C52.1758 33.7422 51.7188 33.043 51.3828 32.2383C51.0469 31.4258 50.8789 30.5508 50.8789 29.6133C50.8789 28.6602 51.0469 27.7773 51.3828 26.9648C51.7188 26.1523 52.1758 25.4531 52.7539 24.8672C53.3398 24.2734 54.0195 23.8086 54.793 23.4727C55.5742 23.1367 56.4062 22.9688 57.2891 22.9688C58.1797 22.9688 59.0117 23.1289 59.7852 23.4492C60.5664 23.7617 61.2461 24.2109 61.8242 24.7969C62.4023 25.375 62.8594 26.0742 63.1953 26.8945C63.5312 27.707 63.6992 28.6133 63.6992 29.6133ZM60.4766 29.6133C60.4766 29.0977 60.3906 28.6328 60.2188 28.2188C60.0547 27.7969 59.8281 27.4375 59.5391 27.1406C59.25 26.8359 58.9102 26.6055 58.5195 26.4492C58.1367 26.2852 57.7266 26.2031 57.2891 26.2031C56.8516 26.2031 56.4375 26.2852 56.0469 26.4492C55.6641 26.6055 55.3281 26.8359 55.0391 27.1406C54.7578 27.4375 54.5352 27.7969 54.3711 28.2188C54.207 28.6328 54.125 29.0977 54.125 29.6133C54.125 30.0977 54.207 30.5469 54.3711 30.9609C54.5352 31.375 54.7578 31.7344 55.0391 32.0391C55.3281 32.3438 55.6641 32.5859 56.0469 32.7656C56.4375 32.9375 56.8516 33.0234 57.2891 33.0234C57.7266 33.0234 58.1367 32.9414 58.5195 32.7773C58.9102 32.6133 59.25 32.3828 59.5391 32.0859C59.8281 31.7891 60.0547 31.4297 60.2188 31.0078C60.3906 30.5859 60.4766 30.1211 60.4766 29.6133ZM68.668 36H65.4688V23.4492H66.2422L67.2969 24.668C67.8125 24.1992 68.3945 23.8398 69.043 23.5898C69.6992 23.332 70.3828 23.2031 71.0938 23.2031C71.8594 23.2031 72.582 23.3516 73.2617 23.6484C73.9414 23.9375 74.5352 24.3398 75.043 24.8555C75.5508 25.3633 75.9492 25.9609 76.2383 26.6484C76.5352 27.3281 76.6836 28.0547 76.6836 28.8281V36H73.4844V28.8281C73.4844 28.5 73.4219 28.1914 73.2969 27.9023C73.1719 27.6055 73 27.3477 72.7812 27.1289C72.5625 26.9102 72.3086 26.7383 72.0195 26.6133C71.7305 26.4883 71.4219 26.4258 71.0938 26.4258C70.7578 26.4258 70.4414 26.4883 70.1445 26.6133C69.8477 26.7383 69.5898 26.9102 69.3711 27.1289C69.1523 27.3477 68.9805 27.6055 68.8555 27.9023C68.7305 28.1914 68.668 28.5 68.668 28.8281V36ZM85.8594 36H78.5469V32.8125H85.8594C86.0781 32.8125 86.2656 32.7344 86.4219 32.5781C86.5781 32.4219 86.6562 32.2344 86.6562 32.0156C86.6562 31.7891 86.5781 31.6406 86.4219 31.5703C86.2656 31.5 86.0781 31.4648 85.8594 31.4648H82.5312C81.9766 31.4648 81.457 31.3594 80.9727 31.1484C80.4883 30.9375 80.0664 30.6523 79.707 30.293C79.3477 29.9258 79.0625 29.5 78.8516 29.0156C78.6484 28.5312 78.5469 28.0117 78.5469 27.457C78.5469 26.9023 78.6484 26.3828 78.8516 25.8984C79.0625 25.4141 79.3477 24.9922 79.707 24.6328C80.0664 24.2734 80.4883 23.9922 80.9727 23.7891C81.457 23.5781 81.9766 23.4727 82.5312 23.4727H89.0117V26.6602H82.5312C82.3125 26.6602 82.125 26.7383 81.9688 26.8945C81.8125 27.0508 81.7344 27.2383 81.7344 27.457C81.7344 27.6836 81.8125 27.8789 81.9688 28.043C82.125 28.1992 82.3125 28.2773 82.5312 28.2773H85.8594C86.4062 28.2773 86.9219 28.3711 87.4062 28.5586C87.8906 28.7383 88.3125 28.9922 88.6719 29.3203C89.0312 29.6484 89.3164 30.043 89.5273 30.5039C89.7383 30.9648 89.8438 31.4688 89.8438 32.0156C89.8438 32.5703 89.7383 33.0898 89.5273 33.5742C89.3164 34.0508 89.0312 34.4727 88.6719 34.8398C88.3125 35.1992 87.8906 35.4844 87.4062 35.6953C86.9219 35.8984 86.4062 36 85.8594 36ZM110.41 36H109.637L108.395 34.2773C108.09 34.5508 107.766 34.8086 107.422 35.0508C107.086 35.2852 106.73 35.4922 106.355 35.6719C105.98 35.8438 105.594 35.9805 105.195 36.082C104.805 36.1836 104.406 36.2344 104 36.2344C103.117 36.2344 102.285 36.0703 101.504 35.7422C100.73 35.4062 100.051 34.9453 99.4648 34.3594C98.8867 33.7656 98.4297 33.0664 98.0938 32.2617C97.7578 31.4492 97.5898 30.5664 97.5898 29.6133C97.5898 28.668 97.7578 27.7891 98.0938 26.9766C98.4297 26.1641 98.8867 25.4609 99.4648 24.8672C100.051 24.2734 100.73 23.8086 101.504 23.4727C102.285 23.1367 103.117 22.9688 104 22.9688C104.281 22.9688 104.57 22.9922 104.867 23.0391C105.172 23.0859 105.465 23.1641 105.746 23.2734C106.035 23.375 106.305 23.5117 106.555 23.6836C106.805 23.8555 107.016 24.0664 107.188 24.3164V18.457H110.41V36ZM107.188 29.6133C107.188 29.1758 107.102 28.7539 106.93 28.3477C106.766 27.9336 106.539 27.5703 106.25 27.2578C105.961 26.9375 105.621 26.6836 105.23 26.4961C104.848 26.3008 104.438 26.2031 104 26.2031C103.562 26.2031 103.148 26.2812 102.758 26.4375C102.375 26.5938 102.039 26.8203 101.75 27.1172C101.469 27.4062 101.246 27.7617 101.082 28.1836C100.918 28.6055 100.836 29.082 100.836 29.6133C100.836 30.0742 100.918 30.5117 101.082 30.9258C101.246 31.3398 101.469 31.7031 101.75 32.0156C102.039 32.3281 102.375 32.5742 102.758 32.7539C103.148 32.9336 103.562 33.0234 104 33.0234C104.438 33.0234 104.848 32.9297 105.23 32.7422C105.621 32.5469 105.961 32.293 106.25 31.9805C106.539 31.6602 106.766 31.2969 106.93 30.8906C107.102 30.4766 107.188 30.0508 107.188 29.6133ZM117.852 32.9297C117.977 32.9688 118.102 32.9961 118.227 33.0117C118.352 33.0195 118.477 33.0234 118.602 33.0234C118.914 33.0234 119.215 32.9805 119.504 32.8945C119.793 32.8086 120.062 32.6875 120.312 32.5312C120.57 32.3672 120.797 32.1719 120.992 31.9453C121.195 31.7109 121.359 31.4531 121.484 31.1719L123.828 33.5273C123.531 33.9492 123.188 34.3281 122.797 34.6641C122.414 35 121.996 35.2852 121.543 35.5195C121.098 35.7539 120.625 35.9297 120.125 36.0469C119.633 36.1719 119.125 36.2344 118.602 36.2344C117.719 36.2344 116.887 36.0703 116.105 35.7422C115.332 35.4141 114.652 34.957 114.066 34.3711C113.488 33.7852 113.031 33.0898 112.695 32.2852C112.359 31.4727 112.191 30.582 112.191 29.6133C112.191 28.6211 112.359 27.7148 112.695 26.8945C113.031 26.0742 113.488 25.375 114.066 24.7969C114.652 24.2188 115.332 23.7695 116.105 23.4492C116.887 23.1289 117.719 22.9688 118.602 22.9688C119.125 22.9688 119.637 23.0312 120.137 23.1562C120.637 23.2812 121.109 23.4609 121.555 23.6953C122.008 23.9297 122.43 24.2188 122.82 24.5625C123.211 24.8984 123.555 25.2773 123.852 25.6992L117.852 32.9297ZM119.492 26.332C119.344 26.2773 119.195 26.2422 119.047 26.2266C118.906 26.2109 118.758 26.2031 118.602 26.2031C118.164 26.2031 117.75 26.2852 117.359 26.4492C116.977 26.6055 116.641 26.832 116.352 27.1289C116.07 27.4258 115.848 27.7852 115.684 28.207C115.52 28.6211 115.438 29.0898 115.438 29.6133C115.438 29.7305 115.441 29.8633 115.449 30.0117C115.465 30.1602 115.484 30.3125 115.508 30.4688C115.539 30.6172 115.574 30.7617 115.613 30.9023C115.652 31.043 115.703 31.168 115.766 31.2773L119.492 26.332ZM135.418 36H132.195V18.457H135.418V36ZM150.02 36H149.246L148.004 34.2773C147.699 34.5508 147.375 34.8086 147.031 35.0508C146.695 35.2852 146.34 35.4922 145.965 35.6719C145.59 35.8438 145.203 35.9805 144.805 36.082C144.414 36.1836 144.016 36.2344 143.609 36.2344C142.727 36.2344 141.895 36.0859 141.113 35.7891C140.34 35.4922 139.66 35.0625 139.074 34.5C138.496 33.9297 138.039 33.2344 137.703 32.4141C137.367 31.5938 137.199 30.6602 137.199 29.6133C137.199 28.6367 137.367 27.7422 137.703 26.9297C138.039 26.1094 138.496 25.4062 139.074 24.8203C139.66 24.2344 140.34 23.7812 141.113 23.4609C141.895 23.1328 142.727 22.9688 143.609 22.9688C144.016 22.9688 144.418 23.0195 144.816 23.1211C145.215 23.2227 145.602 23.3633 145.977 23.543C146.352 23.7227 146.707 23.9336 147.043 24.1758C147.387 24.418 147.707 24.6797 148.004 24.9609L149.246 23.4727H150.02V36ZM146.797 29.6133C146.797 29.1758 146.711 28.7539 146.539 28.3477C146.375 27.9336 146.148 27.5703 145.859 27.2578C145.57 26.9375 145.23 26.6836 144.84 26.4961C144.457 26.3008 144.047 26.2031 143.609 26.2031C143.172 26.2031 142.758 26.2773 142.367 26.4258C141.984 26.5742 141.648 26.793 141.359 27.082C141.078 27.3711 140.855 27.7305 140.691 28.1602C140.527 28.582 140.445 29.0664 140.445 29.6133C140.445 30.1602 140.527 30.6484 140.691 31.0781C140.855 31.5 141.078 31.8555 141.359 32.1445C141.648 32.4336 141.984 32.6523 142.367 32.8008C142.758 32.9492 143.172 33.0234 143.609 33.0234C144.047 33.0234 144.457 32.9297 144.84 32.7422C145.23 32.5469 145.57 32.293 145.859 31.9805C146.148 31.6602 146.375 31.2969 146.539 30.8906C146.711 30.4766 146.797 30.0508 146.797 29.6133ZM172.906 34.3008C172.125 34.9648 171.254 35.4766 170.293 35.8359C169.332 36.1875 168.332 36.3633 167.293 36.3633C166.496 36.3633 165.727 36.2578 164.984 36.0469C164.25 35.8438 163.562 35.5547 162.922 35.1797C162.281 34.7969 161.695 34.3438 161.164 33.8203C160.633 33.2891 160.18 32.7031 159.805 32.0625C159.43 31.4141 159.137 30.7188 158.926 29.9766C158.723 29.2344 158.621 28.4648 158.621 27.668C158.621 26.8711 158.723 26.1055 158.926 25.3711C159.137 24.6367 159.43 23.9492 159.805 23.3086C160.18 22.6602 160.633 22.0742 161.164 21.5508C161.695 21.0195 162.281 20.5664 162.922 20.1914C163.562 19.8164 164.25 19.5273 164.984 19.3242C165.727 19.1133 166.496 19.0078 167.293 19.0078C168.332 19.0078 169.332 19.1875 170.293 19.5469C171.254 19.8984 172.125 20.4062 172.906 21.0703L171.148 24C170.641 23.4844 170.055 23.082 169.391 22.793C168.727 22.4961 168.027 22.3477 167.293 22.3477C166.559 22.3477 165.867 22.4883 165.219 22.7695C164.578 23.0508 164.016 23.4336 163.531 23.918C163.047 24.3945 162.664 24.957 162.383 25.6055C162.102 26.2461 161.961 26.9336 161.961 27.668C161.961 28.4102 162.102 29.1055 162.383 29.7539C162.664 30.4023 163.047 30.9688 163.531 31.4531C164.016 31.9375 164.578 32.3203 165.219 32.6016C165.867 32.8828 166.559 33.0234 167.293 33.0234C167.715 33.0234 168.125 32.9727 168.523 32.8711C168.922 32.7695 169.301 32.6289 169.66 32.4492V27.668H172.906V34.3008ZM187.285 29.6133C187.285 30.5508 187.117 31.4258 186.781 32.2383C186.445 33.043 185.988 33.7422 185.41 34.3359C184.832 34.9219 184.152 35.3867 183.371 35.7305C182.598 36.0664 181.766 36.2344 180.875 36.2344C179.992 36.2344 179.16 36.0664 178.379 35.7305C177.605 35.3867 176.926 34.9219 176.34 34.3359C175.762 33.7422 175.305 33.043 174.969 32.2383C174.633 31.4258 174.465 30.5508 174.465 29.6133C174.465 28.6602 174.633 27.7773 174.969 26.9648C175.305 26.1523 175.762 25.4531 176.34 24.8672C176.926 24.2734 177.605 23.8086 178.379 23.4727C179.16 23.1367 179.992 22.9688 180.875 22.9688C181.766 22.9688 182.598 23.1289 183.371 23.4492C184.152 23.7617 184.832 24.2109 185.41 24.7969C185.988 25.375 186.445 26.0742 186.781 26.8945C187.117 27.707 187.285 28.6133 187.285 29.6133ZM184.062 29.6133C184.062 29.0977 183.977 28.6328 183.805 28.2188C183.641 27.7969 183.414 27.4375 183.125 27.1406C182.836 26.8359 182.496 26.6055 182.105 26.4492C181.723 26.2852 181.312 26.2031 180.875 26.2031C180.438 26.2031 180.023 26.2852 179.633 26.4492C179.25 26.6055 178.914 26.8359 178.625 27.1406C178.344 27.4375 178.121 27.7969 177.957 28.2188C177.793 28.6328 177.711 29.0977 177.711 29.6133C177.711 30.0977 177.793 30.5469 177.957 30.9609C178.121 31.375 178.344 31.7344 178.625 32.0391C178.914 32.3438 179.25 32.5859 179.633 32.7656C180.023 32.9375 180.438 33.0234 180.875 33.0234C181.312 33.0234 181.723 32.9414 182.105 32.7773C182.496 32.6133 182.836 32.3828 183.125 32.0859C183.414 31.7891 183.641 31.4297 183.805 31.0078C183.977 30.5859 184.062 30.1211 184.062 29.6133ZM205.016 36H201.828V28.0312C201.828 27.8125 201.785 27.6055 201.699 27.4102C201.621 27.2148 201.508 27.043 201.359 26.8945C201.211 26.7461 201.039 26.6328 200.844 26.5547C200.648 26.4688 200.441 26.4258 200.223 26.4258C200.004 26.4258 199.797 26.4688 199.602 26.5547C199.414 26.6328 199.246 26.7461 199.098 26.8945C198.957 27.043 198.844 27.2148 198.758 27.4102C198.68 27.6055 198.641 27.8125 198.641 28.0312V36H195.441V28.0312C195.441 27.8125 195.398 27.6055 195.312 27.4102C195.234 27.2148 195.121 27.043 194.973 26.8945C194.824 26.7461 194.652 26.6328 194.457 26.5547C194.262 26.4688 194.055 26.4258 193.836 26.4258C193.617 26.4258 193.41 26.4688 193.215 26.5547C193.027 26.6328 192.859 26.7461 192.711 26.8945C192.57 27.043 192.457 27.2148 192.371 27.4102C192.293 27.6055 192.254 27.8125 192.254 28.0312V36H189.055V23.4492H189.828L190.695 24.4102C191.141 24.0352 191.629 23.7461 192.16 23.543C192.699 23.332 193.258 23.2266 193.836 23.2266C194.422 23.2266 194.992 23.3359 195.547 23.5547C196.109 23.7734 196.602 24.1523 197.023 24.6914C197.219 24.4258 197.441 24.1992 197.691 24.0117C197.941 23.8242 198.203 23.6719 198.477 23.5547C198.758 23.4375 199.047 23.3555 199.344 23.3086C199.641 23.2539 199.934 23.2266 200.223 23.2266C200.887 23.2266 201.508 23.3516 202.086 23.6016C202.672 23.8516 203.18 24.1953 203.609 24.6328C204.047 25.0625 204.391 25.5703 204.641 26.1562C204.891 26.7422 205.016 27.3672 205.016 28.0312V36ZM219.828 29.6133C219.828 30.5977 219.66 31.4961 219.324 32.3086C218.988 33.1211 218.531 33.8203 217.953 34.4062C217.375 34.9844 216.695 35.4336 215.914 35.7539C215.141 36.0742 214.309 36.2344 213.418 36.2344C212.535 36.2344 211.703 36.0703 210.922 35.7422C210.148 35.4141 209.469 34.957 208.883 34.3711C208.305 33.7852 207.848 33.0898 207.512 32.2852C207.176 31.4727 207.008 30.582 207.008 29.6133V18.457H210.219V24.3164C210.391 24.0977 210.598 23.9023 210.84 23.7305C211.09 23.5586 211.355 23.418 211.637 23.3086C211.926 23.1992 212.223 23.1172 212.527 23.0625C212.832 23 213.129 22.9688 213.418 22.9688C214.309 22.9688 215.141 23.1367 215.914 23.4727C216.695 23.8008 217.375 24.2617 217.953 24.8555C218.531 25.4492 218.988 26.1523 219.324 26.9648C219.66 27.7695 219.828 28.6523 219.828 29.6133ZM216.605 29.6133C216.605 29.1289 216.52 28.6797 216.348 28.2656C216.184 27.8438 215.957 27.4805 215.668 27.1758C215.379 26.8711 215.039 26.6328 214.648 26.4609C214.266 26.2891 213.855 26.2031 213.418 26.2031C212.98 26.2031 212.566 26.3008 212.176 26.4961C211.793 26.6836 211.457 26.9375 211.168 27.2578C210.879 27.5703 210.652 27.9336 210.488 28.3477C210.324 28.7539 210.242 29.1758 210.242 29.6133C210.242 30.0977 210.324 30.5469 210.488 30.9609C210.652 31.375 210.879 31.7344 211.168 32.0391C211.457 32.3438 211.793 32.5859 212.176 32.7656C212.566 32.9375 212.98 33.0234 213.418 33.0234C213.855 33.0234 214.266 32.9375 214.648 32.7656C215.039 32.5859 215.379 32.3438 215.668 32.0391C215.957 31.7344 216.184 31.375 216.348 30.9609C216.52 30.5469 216.605 30.0977 216.605 29.6133ZM226.602 32.9297C226.727 32.9688 226.852 32.9961 226.977 33.0117C227.102 33.0195 227.227 33.0234 227.352 33.0234C227.664 33.0234 227.965 32.9805 228.254 32.8945C228.543 32.8086 228.812 32.6875 229.062 32.5312C229.32 32.3672 229.547 32.1719 229.742 31.9453C229.945 31.7109 230.109 31.4531 230.234 31.1719L232.578 33.5273C232.281 33.9492 231.938 34.3281 231.547 34.6641C231.164 35 230.746 35.2852 230.293 35.5195C229.848 35.7539 229.375 35.9297 228.875 36.0469C228.383 36.1719 227.875 36.2344 227.352 36.2344C226.469 36.2344 225.637 36.0703 224.855 35.7422C224.082 35.4141 223.402 34.957 222.816 34.3711C222.238 33.7852 221.781 33.0898 221.445 32.2852C221.109 31.4727 220.941 30.582 220.941 29.6133C220.941 28.6211 221.109 27.7148 221.445 26.8945C221.781 26.0742 222.238 25.375 222.816 24.7969C223.402 24.2188 224.082 23.7695 224.855 23.4492C225.637 23.1289 226.469 22.9688 227.352 22.9688C227.875 22.9688 228.387 23.0312 228.887 23.1562C229.387 23.2812 229.859 23.4609 230.305 23.6953C230.758 23.9297 231.18 24.2188 231.57 24.5625C231.961 24.8984 232.305 25.2773 232.602 25.6992L226.602 32.9297ZM228.242 26.332C228.094 26.2773 227.945 26.2422 227.797 26.2266C227.656 26.2109 227.508 26.2031 227.352 26.2031C226.914 26.2031 226.5 26.2852 226.109 26.4492C225.727 26.6055 225.391 26.832 225.102 27.1289C224.82 27.4258 224.598 27.7852 224.434 28.207C224.27 28.6211 224.188 29.0898 224.188 29.6133C224.188 29.7305 224.191 29.8633 224.199 30.0117C224.215 30.1602 224.234 30.3125 224.258 30.4688C224.289 30.6172 224.324 30.7617 224.363 30.9023C224.402 31.043 224.453 31.168 224.516 31.2773L228.242 26.332Z" fill="white"/>
</svg>
