<svg width="20" height="20" viewBox="0 0 20 20" fill="none" xmlns="http://www.w3.org/2000/svg">
<g clip-path="url(#clip0_6265_5744)">
<path d="M10.0026 5C10.9193 5 11.6693 5.75 11.6693 6.66667C11.6693 7.58334 10.9193 8.33334 10.0026 8.33334C9.08594 8.33334 8.33594 7.58334 8.33594 6.66667C8.33594 5.75 9.08594 5 10.0026 5ZM10.0026 13.3333C12.2526 13.3333 14.8359 14.4083 15.0026 15H5.0026C5.19427 14.4 7.76094 13.3333 10.0026 13.3333ZM10.0026 3.33334C8.16094 3.33334 6.66927 4.825 6.66927 6.66667C6.66927 8.50834 8.16094 10 10.0026 10C11.8443 10 13.3359 8.50834 13.3359 6.66667C13.3359 4.825 11.8443 3.33334 10.0026 3.33334ZM10.0026 11.6667C7.7776 11.6667 3.33594 12.7833 3.33594 15V16.6667H16.6693V15C16.6693 12.7833 12.2276 11.6667 10.0026 11.6667Z" fill="#555555"/>
</g>
<defs>
<clipPath id="clip0_6265_5744">
<rect width="20" height="20" fill="white"/>
</clipPath>
</defs>
</svg>
